<svg width="45" height="36" viewBox="0 0 45 36" fill="none" xmlns="http://www.w3.org/2000/svg">
<path d="M45 3.2977C45 1.92452 42.993 0.813492 40.5225 0.813492H4.4775C3.28999 0.813492 2.15112 1.07522 1.31143 1.5411C0.471733 2.00698 0 2.63885 0 3.2977C0 3.95656 0.471733 4.58843 1.31143 5.05431C2.15112 5.52019 3.28999 5.78192 4.4775 5.78192H40.5225C41.71 5.78192 42.8489 5.52019 43.6886 5.05431C44.5283 4.58843 45 3.95656 45 3.2977Z" fill="#F9F9F9"/>
<path d="M45 18.2904C45 16.9172 43.9965 15.8062 42.7613 15.8062H2.23875C1.645 15.8062 1.07557 16.0679 0.655716 16.5338C0.23587 16.9996 0 17.6315 0 18.2904C0 18.9492 0.23587 19.5811 0.655716 20.047C1.07557 20.5129 1.645 20.7746 2.23875 20.7746H42.7613C43.355 20.7746 43.9244 20.5129 44.3443 20.047C44.7641 19.5811 45 18.9492 45 18.2904Z" fill="#F9F9F9"/>
<path d="M41.8018 30.7988C42.65 30.7988 43.4635 31.0605 44.0633 31.5264C44.663 31.9923 45 32.6242 45 33.283C45 33.9419 44.663 34.5737 44.0633 35.0396C43.4635 35.5055 42.65 35.7672 41.8018 35.7672H3.19822C2.34999 35.7672 1.53652 35.5055 0.936737 35.0396C0.336956 34.5737 0 33.9419 0 33.283C0 32.6242 0.336956 31.9923 0.936737 31.5264C1.53652 31.0605 2.34999 30.7988 3.19822 30.7988H41.8018Z" fill="#F9F9F9"/>
</svg>
